<?xml version="1.0" encoding="UTF-8" standalone="no"?>
<!-- Created with Inkscape (http://www.inkscape.org/) -->

<svg
   width="594mm"
   height="841mm"
   viewBox="0 0 594 841"
   version="1.1"
   id="svg5"
   inkscape:version="1.2.1 (9c6d41e, 2022-07-14)"
   sodipodi:docname="reto4.svg"
   xmlns:inkscape="http://www.inkscape.org/namespaces/inkscape"
   xmlns:sodipodi="http://sodipodi.sourceforge.net/DTD/sodipodi-0.dtd"
   xmlns="http://www.w3.org/2000/svg"
   xmlns:svg="http://www.w3.org/2000/svg">
  <sodipodi:namedview
     id="namedview7"
     pagecolor="#ffffff"
     bordercolor="#000000"
     borderopacity="0.25"
     inkscape:showpageshadow="2"
     inkscape:pageopacity="0.0"
     inkscape:pagecheckerboard="0"
     inkscape:deskcolor="#d1d1d1"
     inkscape:document-units="mm"
     showgrid="false"
     inkscape:zoom="0.37861252"
     inkscape:cx="908.58063"
     inkscape:cy="1995.4438"
     inkscape:window-width="1848"
     inkscape:window-height="1016"
     inkscape:window-x="72"
     inkscape:window-y="27"
     inkscape:window-maximized="1"
     inkscape:current-layer="layer1" />
  <defs
     id="defs2">
    <rect
       x="267.1712"
       y="957.25876"
       width="363.71334"
       height="104.46807"
       id="rect25161" />
    <rect
       x="253.5844"
       y="404.28827"
       width="218.1954"
       height="52.333942"
       id="rect2406" />
    <rect
       x="267.1712"
       y="957.25879"
       width="363.71335"
       height="104.46807"
       id="rect25161-3" />
    <rect
       x="267.1712"
       y="957.25879"
       width="363.71335"
       height="104.46807"
       id="rect25161-7" />
    <rect
       x="267.1712"
       y="957.25879"
       width="363.71335"
       height="104.46807"
       id="rect25161-6" />
    <marker
       style="overflow:visible"
       id="TriangleStart"
       refX="0"
       refY="0"
       orient="auto-start-reverse"
       inkscape:stockid="TriangleStart"
       markerWidth="5.3244081"
       markerHeight="6.155385"
       viewBox="0 0 5.3244081 6.1553851"
       inkscape:isstock="true"
       inkscape:collect="always"
       preserveAspectRatio="xMidYMid">
      <path
         transform="scale(0.5)"
         style="fill:context-stroke;fill-rule:evenodd;stroke:context-stroke;stroke-width:1pt"
         d="M 5.77,0 -2.88,5 V -5 Z"
         id="path135" />
    </marker>
    <marker
       style="overflow:visible"
       id="TriangleStart-8"
       refX="0"
       refY="0"
       orient="auto-start-reverse"
       inkscape:stockid="TriangleStart"
       markerWidth="5.3244081"
       markerHeight="6.155385"
       viewBox="0 0 5.3244081 6.1553851"
       inkscape:isstock="true"
       inkscape:collect="always"
       preserveAspectRatio="xMidYMid">
      <path
         transform="scale(0.5)"
         style="fill:context-stroke;fill-rule:evenodd;stroke:context-stroke;stroke-width:1pt"
         d="M 5.77,0 -2.88,5 V -5 Z"
         id="path135-7" />
    </marker>
    <marker
       style="overflow:visible"
       id="TriangleStart-2"
       refX="0"
       refY="0"
       orient="auto-start-reverse"
       inkscape:stockid="TriangleStart"
       markerWidth="5.3244081"
       markerHeight="6.155385"
       viewBox="0 0 5.3244081 6.1553851"
       inkscape:isstock="true"
       inkscape:collect="always"
       preserveAspectRatio="xMidYMid">
      <path
         transform="scale(0.5)"
         style="fill:context-stroke;fill-rule:evenodd;stroke:context-stroke;stroke-width:1pt"
         d="M 5.77,0 -2.88,5 V -5 Z"
         id="path135-0" />
    </marker>
    <marker
       style="overflow:visible"
       id="TriangleStart-3"
       refX="0"
       refY="0"
       orient="auto-start-reverse"
       inkscape:stockid="TriangleStart"
       markerWidth="5.3244081"
       markerHeight="6.155385"
       viewBox="0 0 5.3244081 6.1553851"
       inkscape:isstock="true"
       inkscape:collect="always"
       preserveAspectRatio="xMidYMid">
      <path
         transform="scale(0.5)"
         style="fill:context-stroke;fill-rule:evenodd;stroke:context-stroke;stroke-width:1pt"
         d="M 5.77,0 -2.88,5 V -5 Z"
         id="path135-75" />
    </marker>
  </defs>
  <g
     inkscape:label="Capa 1"
     inkscape:groupmode="layer"
     id="layer1">
    <g
       id="g20244"
       transform="translate(71.399652,234.36806)">
      <g
         id="g24991"
         transform="translate(16.12529,46.450622)">
        <path
           id="path6131"
           style="fill:#0000ff;stroke:#2b0000;stroke-width:1.08442"
           d="M 29.66899,96.514006 A 29.457788,29.45779 0 0 0 0.21135661,125.97164 29.457788,29.45779 0 0 0 29.66899,155.42927 h 150.00015 a 29.457788,29.45779 0 0 0 29.45763,-29.45763 29.457788,29.45779 0 0 0 -29.45763,-29.457634 z" />
        <ellipse
           style="fill:#ffffff;stroke:#2b0000;stroke-width:0.393161"
           id="path6347"
           cx="179.66902"
           cy="125.9717"
           rx="9.8034201"
           ry="9.8034191" />
        <ellipse
           style="fill:#ffffff;stroke:#2b0000;stroke-width:0.393161"
           id="path6347-9"
           cx="29.669024"
           cy="125.9717"
           rx="9.8034201"
           ry="9.8034191" />
      </g>
      <g
         id="g24981"
         transform="rotate(38.789908,48.583662,407.63503)">
        <path
           id="path6131-0-2"
           style="fill:#ff00ff;stroke:#2b0000;stroke-width:1.08442"
           d="M 29.668988,-47.52422 A 29.457788,29.45779 0 0 0 0.21135513,-18.066586 29.457788,29.45779 0 0 0 29.668988,11.391044 H 179.66914 a 29.457788,29.45779 0 0 0 29.45763,-29.45763 29.457788,29.45779 0 0 0 -29.45763,-29.457634 z" />
        <ellipse
           style="fill:#ffffff;stroke:#2b0000;stroke-width:0.393161"
           id="path6347-9-6-6"
           cx="179.66902"
           cy="-18.066587"
           rx="9.8034201"
           ry="9.8034191" />
        <ellipse
           style="fill:#ffffff;stroke:#2b0000;stroke-width:0.393161"
           id="path6347-9-6-0"
           cx="29.669024"
           cy="-18.066587"
           rx="9.8034201"
           ry="9.8034191" />
      </g>
      <g
         id="g24986"
         transform="rotate(-45.931031,247.3694,-80.454557)">
        <path
           id="path6131-0"
           style="fill:#ff6600;stroke:#2b0000;stroke-width:1.08442"
           d="M 29.66899,28.777325 A 29.457788,29.45779 0 0 0 0.21135696,58.234959 29.457788,29.45779 0 0 0 29.66899,87.692589 h 150.00015 a 29.457788,29.45779 0 0 0 29.45763,-29.45763 29.457788,29.45779 0 0 0 -29.45763,-29.457634 z" />
        <ellipse
           style="fill:#ffffff;stroke:#2b0000;stroke-width:0.393161"
           id="path6347-9-3"
           cx="179.66902"
           cy="58.234959"
           rx="9.8034201"
           ry="9.8034191" />
        <ellipse
           style="fill:#ffffff;stroke:#2b0000;stroke-width:0.393161"
           id="path6347-9-6"
           cx="29.669024"
           cy="58.234959"
           rx="9.8034201"
           ry="9.8034191" />
      </g>
      <g
         id="g24996"
         transform="rotate(54.769919,60.601764,198.75369)">
        <path
           id="path6131-1"
           style="fill:#ffff00;stroke:#2b0000;stroke-width:1.08442"
           d="M 29.668992,167.45114 A 29.457788,29.45779 0 0 0 0.21135867,196.90877 29.457788,29.45779 0 0 0 29.668992,226.3664 H 179.66914 a 29.457788,29.45779 0 0 0 29.45763,-29.45763 29.457788,29.45779 0 0 0 -29.45763,-29.45763 z" />
        <ellipse
           style="fill:#ffffff;stroke:#2b0000;stroke-width:0.393161"
           id="path6347-9-5"
           cx="29.669024"
           cy="196.90877"
           rx="9.8034201"
           ry="9.8034191" />
        <ellipse
           style="fill:#ffffff;stroke:#2b0000;stroke-width:0.393161"
           id="path6347-9-54"
           cx="179.66902"
           cy="196.90877"
           rx="9.8034201"
           ry="9.8034191" />
      </g>
    </g>
    <text
       xml:space="preserve"
       transform="matrix(0.96362018,0,0,1.4093972,-163.1104,-1080.9889)"
       id="text25159"
       style="white-space:pre;shape-inside:url(#rect25161);fill:#2b0000;stroke:#2b0000;stroke-linecap:square"><tspan
         x="267.17188"
         y="967.875"
         id="tspan24640">Eslab贸n 2</tspan></text>
    <text
       xml:space="preserve"
       transform="matrix(0.96362018,0,0,1.4093972,78.062558,-833.42285)"
       id="text25159-0"
       style="white-space:pre;shape-inside:url(#rect25161-3);display:inline;fill:#2b0000;stroke:#2b0000;stroke-linecap:square"><tspan
         x="267.17188"
         y="967.875"
         id="tspan24642">Eslab贸n 1</tspan></text>
    <text
       xml:space="preserve"
       transform="matrix(0.96362018,0,0,1.4093972,105.67649,-879.75214)"
       id="text25159-8"
       style="white-space:pre;shape-inside:url(#rect25161-7);display:inline;fill:#2b0000;stroke:#2b0000;stroke-linecap:square"><tspan
         x="267.17188"
         y="967.875"
         id="tspan24644">Eslab贸n 3</tspan></text>
    <text
       xml:space="preserve"
       transform="matrix(0.96362018,0,0,1.4093972,201.67062,-848.88972)"
       id="text25159-88"
       style="white-space:pre;shape-inside:url(#rect25161-6);display:inline;fill:#2b0000;stroke:#2b0000;stroke-linecap:square"><tspan
         x="267.17188"
         y="967.875"
         id="tspan24646">Eslab贸n 4</tspan></text>
    <path
       style="display:inline;fill:#f1ee00;fill-opacity:0.0470588;stroke:#2b0000;stroke-width:0.865;stroke-linecap:square;stroke-dasharray:none;marker-end:url(#TriangleStart)"
       d="m 124.9338,292.51356 32.42571,57.71446"
       id="path2317" />
    <path
       style="display:inline;fill:#f1ee00;fill-opacity:0.0470588;stroke:#2b0000;stroke-width:0.865;stroke-linecap:square;stroke-dasharray:none;marker-end:url(#TriangleStart-8)"
       d="M 320.64122,524.33573 254.45803,522.8623"
       id="path2317-9" />
    <path
       style="display:inline;fill:#f1ee00;fill-opacity:0.0470588;stroke:#2b0000;stroke-width:0.865;stroke-linecap:square;stroke-dasharray:none;marker-end:url(#TriangleStart-2)"
       d="M 368.5763,463.3437 350.2146,399.74154"
       id="path2317-2" />
    <path
       style="display:inline;fill:#f1ee00;fill-opacity:0.0470588;stroke:#2b0000;stroke-width:0.865;stroke-linecap:square;stroke-dasharray:none;marker-end:url(#TriangleStart-3)"
       d="m 492.465,497.37048 -0.98041,-66.19233"
       id="path2317-92" />
  </g>
</svg>
