<?xml version="1.0" encoding="UTF-8" standalone="no"?>
<!-- Created with Inkscape (http://www.inkscape.org/) -->

<svg
   width="210mm"
   height="297mm"
   viewBox="0 0 210 297"
   version="1.1"
   id="svg242"
   inkscape:version="1.2.1 (9c6d41e, 2022-07-14)"
   sodipodi:docname="reto1.svg"
   xmlns:inkscape="http://www.inkscape.org/namespaces/inkscape"
   xmlns:sodipodi="http://sodipodi.sourceforge.net/DTD/sodipodi-0.dtd"
   xmlns="http://www.w3.org/2000/svg"
   xmlns:svg="http://www.w3.org/2000/svg">
  <sodipodi:namedview
     id="namedview244"
     pagecolor="#ffffff"
     bordercolor="#000000"
     borderopacity="0.25"
     inkscape:showpageshadow="2"
     inkscape:pageopacity="0.0"
     inkscape:pagecheckerboard="0"
     inkscape:deskcolor="#d1d1d1"
     inkscape:document-units="mm"
     showgrid="false"
     inkscape:zoom="0.75722503"
     inkscape:cx="397.50403"
     inkscape:cy="456.27124"
     inkscape:window-width="1848"
     inkscape:window-height="1016"
     inkscape:window-x="72"
     inkscape:window-y="27"
     inkscape:window-maximized="1"
     inkscape:current-layer="layer1" />
  <defs
     id="defs239" />
  <g
     inkscape:label="Capa 1"
     inkscape:groupmode="layer"
     id="layer1">
    <g
       id="g614"
       transform="matrix(1.463634,0,0,1.3626352,45.942775,279.99572)">
      <g
         id="g595">
        <g
           id="g461"
           transform="translate(1.7185081,-3.3609516)">
          <path
             id="path3827-0"
             style="fill:#ffff00;stroke:#241f1c;stroke-width:0.22048"
             d="m 10.693785,-134.57689 a 10.579314,6.2721702 81.146633 0 0 7.002852,3.73579 l 10.363765,18.38362 3.37277,-4.94624 -10.363759,-18.38362 a 10.579314,6.2721702 81.146633 0 0 -1.641641,-11.59813 10.579314,6.2721702 81.146633 0 0 -9.056267,-1.91372 10.579314,6.2721702 81.146633 0 0 0.32228,14.7223 z" />
          <path
             id="path3827-0-3"
             style="fill:#ffff00;stroke:#241f1c;stroke-width:0.22048"
             d="m 60.565007,-134.78365 a 6.2721702,10.579314 8.853367 0 1 -7.002852,3.73579 l -10.363765,18.38362 -3.37277,-4.94624 10.363759,-18.38362 a 6.2721702,10.579314 8.853367 0 1 1.641641,-11.59813 6.2721702,10.579314 8.853367 0 1 9.056267,-1.91372 6.2721702,10.579314 8.853367 0 1 -0.32228,14.7223 z" />
          <path
             style="fill:#80e5ff;stroke:#2b0000;stroke-width:0.264583"
             d="m 22.090227,-117.85015 h 28.780645 v 7.19862 h 7.751077 v 7.45252 h -8.034671 v 16.095261 H 20.978951 v -15.149391 h -8.761917 v -8.46571 h 8.748677 v -6.99538 z"
             id="path4077"
             sodipodi:nodetypes="cccccccccccccc" />
          <ellipse
             style="fill:#ffffff;stroke:#241f1c;stroke-width:0.0984037"
             id="path3827-7"
             cx="29.751892"
             cy="-106.99162"
             rx="3.7876976"
             ry="3.4896815" />
          <ellipse
             style="fill:#2b0000;stroke:#241f1c;stroke-width:0.0375323"
             id="path3827-7-5"
             cx="28.500088"
             cy="-105.22519"
             rx="1.4446727"
             ry="1.3310058" />
          <ellipse
             style="fill:#ffffff;stroke:#241f1c;stroke-width:0.0984037"
             id="path3827-7-3"
             cx="40.735203"
             cy="-106.68933"
             rx="3.7876976"
             ry="3.4896815" />
          <ellipse
             style="fill:#2b0000;stroke:#241f1c;stroke-width:0.0367946"
             id="path3827-7-6"
             cx="39.572006"
             cy="-104.84296"
             rx="1.4162773"
             ry="1.3048445" />
          <g
             id="g444"
             transform="translate(-10.881904,-17.948374)">
            <path
               style="fill:#ffff00;stroke:#2b0000;stroke-width:0.264583"
               d="m 38.353085,-78.494577 v 5.565899 h 16.430852 v -5.616459 H 38.168615"
               id="path354" />
            <path
               style="fill:#ffff00;stroke:#2b0000;stroke-width:0.267803"
               d="m 40.746987,-78.509811 v 5.449871"
               id="path356" />
            <path
               style="fill:#ffff00;stroke:#2b0000;stroke-width:0.271321"
               d="m 42.669121,-78.54659 v 5.593992"
               id="path356-3" />
            <path
               style="fill:#ffff00;stroke:#2b0000;stroke-width:0.267803"
               d="m 45.058794,-78.515864 v 5.449871"
               id="path356-6" />
            <path
               style="fill:#ffff00;stroke:#2b0000;stroke-width:0.267803"
               d="m 47.538762,-78.515864 v 5.449871"
               id="path356-7" />
            <path
               style="fill:#ffff00;stroke:#2b0000;stroke-width:0.270758"
               d="m 49.781772,-78.608042 v 5.570812"
               id="path356-5" />
            <path
               style="fill:#ffff00;stroke:#2b0000;stroke-width:0.267803"
               d="m 52.393495,-78.485137 v 5.449871"
               id="path356-35" />
          </g>
        </g>
      </g>
    </g>
  </g>
</svg>
